# xmcd CD database file generated by OrangeCD 5.2
#
# Track frame offsets:
#	150
#	11004
#	23048
#	36828
#	49634
#	59980
#	71773
#	83292
#	96616
#	110110
#	124312
#	138634
#	148832
#	160829
#	173012
#	182887
#	192192
#
# Disc length: 2776 seconds
#
# Revision: 2
# Processed by: cddbd v1.5.1PL0 Copyright (c) Steve Scherf et al.
# Submitted via: OrangeCD 5.2
#
DISCID=fc0ad611
DTITLE=Charley Pride - Legendary Charley Pride
DYEAR=1999
DGENRE=Country
TTITLE0=Mississippi Cotton Picking Delta Town
TTITLE1=My Eyes Can Only See As Far As You
TTITLE2=All I Have To Offer You Is Me
TTITLE3=She's Too Good To Be True
TTITLE4=Just Between You And Me
TTITLE5=She's Just An Old Love Turned Memory
TTITLE6=The Day The World Stood Still
TTITLE7=I Ain't All Bad
TTITLE8=All His Children
TTITLE9=A Shoulder To Cry On
TTITLE10=(I'm So) Afraid Of Losing You Again
TTITLE11=Is Anybody Goin' To San Antone
TTITLE12=It's Gonna Take A Little Bit Longer
TTITLE13=Let The Chips Fall
TTITLE14=Someone Loves You Honey
TTITLE15=Kiss An Angel Goodmorning
TTITLE16=You're My Jamaica
EXTD=
EXTT0=
EXTT1=
EXTT2=
EXTT3=
EXTT4=
EXTT5=
EXTT6=
EXTT7=
EXTT8=
EXTT9=
EXTT10=
EXTT11=
EXTT12=
EXTT13=
EXTT14=
EXTT15=
EXTT16=
PLAYORDER=
